<svg id="Calque_1" data-name="Calque 1" xmlns="http://www.w3.org/2000/svg" viewBox="0 0 776.36 149.75"><defs><style>.cls-1{fill:none;stroke:#fff;stroke-width:4.6px}</style></defs><path class="cls-1" d="M148.42 117c-6.75 11-19.63 18.52-34.42 18.52H41.72C20 135.52 2.3 119.31 2.3 99.32V39C2.3 19 20 2.82 41.72 2.82H114a41.63 41.63 0 0 1 23.37 7"/><path d="M29.6 92.22h43.86c5.59 0 10.75-1.29 10.75-7.31 0-6.28-4.09-7.28-10.35-7.28H58.62c-16.55 0-31-7.52-31-27.95 0-21.5 16.77-28.59 33.32-28.59h54.82v22.12H75.18c-6.67 0-10.54 1.72-10.54 7.09 0 4.94 3.66 6.88 9.89 6.88h14.62c17.63 0 32.25 7.31 32.25 28.16 0 22.36-15.05 29-31.82 29h-60V92.22zm102.45-36.38v-19.9h10.08V11.48h25.73v24.46h17.69v19.9h-17.69v24.27c0 10.77 2.19 13.7 8.77 13.7h7.31v21.35h-16.37c-17.1 0-25.44-8.22-25.44-33.59V55.84zm65.44 22.71V35.68h25.73v40.53c0 11.66 1.61 16.14 9.65 16.14s9.79-4.48 9.79-16.14V35.68h25.73v42.87c0 27.27-11.26 36.77-35.52 36.77s-35.38-9.51-35.38-36.77zm198.2 36.52c-20.18 0-29.1-12.3-29.1-37.66V35.83h25.74v39.34c0 12.49 1.75 17.15 9.35 17.15h9.79V35.83h25.74v76.44c0 24.24-10.38 37.48-30 37.48h-34.63l9.89-21.75 18.77-.1c7.3 0 9.8-4.1 10.23-12.87zm55.36-42.87c0-23.67 9.21-36.52 28.81-36.52h16v23.49h-10.15c-6.88 0-8.93 4.4-8.93 16.14v40h-25.73zM327.19 0v36.19h-16.08c-19.59 0-30.84 13.45-30.84 39.1s12.42 39.82 32.16 39.82h40.49V0zm0 95.1h-9.5c-7.89 0-10.82-6.37-10.82-19.64 0-12.54 2.92-18.18 10.82-18.18h9.5zM588.7 72.75c0-25 9.06-37.25 29.09-37.06h47.07c19.88 0 28.94 12.11 28.94 37.06v42.57h-25.72V75c0-12.29-1.75-16.88-9.21-16.88h-6.43v57.25h-22.22v-57.3h-6.43c-7.6 0-9.36 4.59-9.36 16.88v40.37H588.7V72.75zm-39.14 10.13v13.75h-14.48c-4.09 0-6.43-1.65-6.43-6.8s2.19-7 6.43-7h14.48zm0-15.46h-24.42c-12.71 0-21.63 6.25-21.63 24.09 0 17.47 8.62 23.91 21.63 23.91h49.26V71.63c0-23.54-8.33-36-25.43-36h-38.88v20.21h31.14c6 0 8 3.86 8.33 11.58zm202 15.46v13.75H737c-4.09 0-6.43-1.65-6.43-6.8s2.19-7 6.43-7h14.47zm0-15.46h-24.47c-12.71 0-21.63 6.25-21.63 24.09 0 17.47 8.62 23.91 21.63 23.91h49.27V71.63c0-23.54-8.33-36-25.43-36H712v20.21h31.13c6 0 8.05 3.86 8.34 11.58z" fill="#fff"/><path class="cls-1" d="M148.42 117c-6.75 11-19.63 18.52-34.42 18.52H41.72C20 135.52 2.3 119.31 2.3 99.32V39C2.3 19 20 2.82 41.72 2.82H114a41.63 41.63 0 0 1 23.37 7"/><path d="M148.42 117c-6.75 11-19.63 18.52-34.42 18.52H41.72C20 135.52 2.3 119.31 2.3 99.32V39C2.3 19 20 2.82 41.72 2.82H114a41.63 41.63 0 0 1 23.37 7" stroke-miterlimit="10" fill="none" stroke="#fff"/></svg>